<mxfile host="app.diagrams.net" modified="2024-03-04T12:50:36.824Z" agent="Mozilla/5.0 (Macintosh; Intel Mac OS X 10_15_7) AppleWebKit/537.36 (KHTML, like Gecko) Chrome/121.0.0.0 Safari/537.36" etag="WmM5JJQsNfbkm1iE7B3e" version="23.1.5" type="github">
  <diagram name="第 1 页" id="EtUGMnVDYJDm20vKxgLq">
    <mxGraphModel dx="1434" dy="820" grid="1" gridSize="10" guides="1" tooltips="1" connect="1" arrows="1" fold="1" page="1" pageScale="1" pageWidth="1200" pageHeight="500" math="0" shadow="0">
      <root>
        <mxCell id="0" />
        <mxCell id="1" parent="0" />
        <mxCell id="tnhg12BTTxNdXiN9A4QB-47" value="" style="rounded=1;whiteSpace=wrap;html=1;fillColor=#d5e8d4;strokeColor=#82b366;" vertex="1" parent="1">
          <mxGeometry x="350" y="310" width="260" height="300" as="geometry" />
        </mxCell>
        <mxCell id="tnhg12BTTxNdXiN9A4QB-3" value="光伏大涨" style="rounded=0;whiteSpace=wrap;html=1;align=left;fillColor=#dae8fc;strokeColor=#6c8ebf;" vertex="1" parent="1">
          <mxGeometry x="60" y="30" width="200" height="30" as="geometry" />
        </mxCell>
        <mxCell id="tnhg12BTTxNdXiN9A4QB-5" value="&lt;div style=&quot;text-align: left;&quot;&gt;关于光伏行情的解读，主要有以下几个方面的信息：&lt;/div&gt;&lt;div style=&quot;text-align: left;&quot;&gt;1.光伏概念股反弹：近期，光伏概念股出现反弹，其中BC电池方向领涨。例如，钧达股份、鹿山新材涨停，海优新材涨近10％，福斯特、宇邦新材等也跟随上涨。&lt;/div&gt;&lt;div style=&quot;text-align: left;&quot;&gt;2.组件排产增加：据中泰证券的最新研报表示，由于之前的遗留订单以及节后市场的好转，预计3月的组件排产将大幅增加，初步判断环比30％可以预期，部分企业增幅甚至达到100％左右。&lt;/div&gt;&lt;div&gt;&lt;br&gt;&lt;/div&gt;" style="rounded=0;whiteSpace=wrap;html=1;fillColor=none;strokeColor=#6c8ebf;strokeWidth=2;" vertex="1" parent="1">
          <mxGeometry x="60" y="70" width="200" height="210" as="geometry" />
        </mxCell>
        <mxCell id="tnhg12BTTxNdXiN9A4QB-6" value="&lt;div class=&quot;lake-content&quot;&gt;&lt;strong&gt;想了解光伏未来趋势？&lt;/strong&gt;&lt;/div&gt;" style="rounded=1;whiteSpace=wrap;html=1;fillColor=#dae8fc;strokeColor=#6c8ebf;" vertex="1" parent="1">
          <mxGeometry x="130" y="340" width="130" height="30" as="geometry" />
        </mxCell>
        <mxCell id="tnhg12BTTxNdXiN9A4QB-7" value="&lt;div class=&quot;lake-content&quot;&gt;&lt;div class=&quot;lake-content&quot;&gt;想挑选优质光伏产品？&lt;/div&gt;&lt;/div&gt;" style="rounded=1;whiteSpace=wrap;html=1;fillColor=#dae8fc;strokeColor=#6c8ebf;" vertex="1" parent="1">
          <mxGeometry x="130" y="380" width="130" height="30" as="geometry" />
        </mxCell>
        <mxCell id="tnhg12BTTxNdXiN9A4QB-8" value="&lt;div class=&quot;lake-content&quot;&gt;&lt;div class=&quot;lake-content&quot;&gt;想挑选优质光伏产品？&lt;/div&gt;&lt;/div&gt;" style="rounded=1;whiteSpace=wrap;html=1;fillColor=#dae8fc;strokeColor=#6c8ebf;" vertex="1" parent="1">
          <mxGeometry x="130" y="420" width="130" height="30" as="geometry" />
        </mxCell>
        <mxCell id="tnhg12BTTxNdXiN9A4QB-9" value="&lt;div style=&quot;text-align: left;&quot;&gt;&lt;div&gt;光伏设备行业估值较低，发展潜力较大，但中期产能过剩或影响其盈利能力。&lt;/div&gt;&lt;div&gt;1.光伏设备行业的估值低，随着需求的改善，有望迎来估值修复的机会。&lt;/div&gt;&lt;div&gt;2.当前光伏设备的需求强劲，且市场渗透率提升空间大，行业具备发展潜力。&lt;/div&gt;&lt;div&gt;3.中期产能过剩的压力仍然存在，可能会使价格下降，行业利润压缩。&lt;/div&gt;&lt;/div&gt;&lt;div&gt;&lt;br&gt;&lt;/div&gt;" style="rounded=0;whiteSpace=wrap;html=1;fillColor=none;strokeColor=#6c8ebf;strokeWidth=2;" vertex="1" parent="1">
          <mxGeometry x="60" y="460" width="200" height="170" as="geometry" />
        </mxCell>
        <mxCell id="tnhg12BTTxNdXiN9A4QB-10" value="&lt;div class=&quot;lake-content&quot;&gt;&lt;div class=&quot;lake-content&quot;&gt;如何把握光伏股？&lt;/div&gt;&lt;/div&gt;" style="rounded=1;whiteSpace=wrap;html=1;fillColor=#dae8fc;strokeColor=#6c8ebf;" vertex="1" parent="1">
          <mxGeometry x="130" y="700" width="130" height="30" as="geometry" />
        </mxCell>
        <mxCell id="tnhg12BTTxNdXiN9A4QB-11" value="&lt;div class=&quot;lake-content&quot;&gt;&lt;div class=&quot;lake-content&quot;&gt;&lt;div class=&quot;lake-content&quot;&gt;&lt;strong&gt;光伏行业风险点？&lt;/strong&gt;&lt;/div&gt;&lt;/div&gt;&lt;/div&gt;" style="rounded=1;whiteSpace=wrap;html=1;fillColor=#dae8fc;strokeColor=#6c8ebf;" vertex="1" parent="1">
          <mxGeometry x="130" y="740" width="130" height="30" as="geometry" />
        </mxCell>
        <mxCell id="tnhg12BTTxNdXiN9A4QB-12" value="&lt;div class=&quot;lake-content&quot;&gt;&lt;div class=&quot;lake-content&quot;&gt;&lt;div class=&quot;lake-content&quot;&gt;是否调整光伏仓位？&lt;/div&gt;&lt;/div&gt;&lt;/div&gt;" style="rounded=1;whiteSpace=wrap;html=1;fillColor=#dae8fc;strokeColor=#6c8ebf;" vertex="1" parent="1">
          <mxGeometry x="130" y="780" width="130" height="30" as="geometry" />
        </mxCell>
        <mxCell id="tnhg12BTTxNdXiN9A4QB-13" value="&lt;div style=&quot;text-align: left;&quot;&gt;&lt;div&gt;&lt;br&gt;&lt;/div&gt;&lt;div&gt;&lt;br&gt;&lt;/div&gt;&lt;div&gt;光伏行业的风险点主要包括以下几点：&lt;/div&gt;&lt;div&gt;1.市场供需变化：光伏行业的供需状况会受到宏观经济、政策调整、技术革新等多种因素的影响，市场供需的变化可能会对行业带来风险。&lt;/div&gt;&lt;div&gt;2.原材料价格波动：光伏行业的主要原材料如硅料、锂电池等价格波动可能会对行业的盈利能力带来影响。&lt;/div&gt;&lt;div&gt;3.国际贸易壁垒：光伏行业在国际市场的竞争力受到国际贸易壁垒的影响，...&lt;/div&gt;&lt;div&gt;&lt;br&gt;&lt;/div&gt;&lt;/div&gt;&lt;div&gt;&lt;br&gt;&lt;/div&gt;" style="rounded=0;whiteSpace=wrap;html=1;fillColor=none;strokeColor=#6c8ebf;strokeWidth=2;" vertex="1" parent="1">
          <mxGeometry x="60" y="820" width="200" height="200" as="geometry" />
        </mxCell>
        <mxCell id="tnhg12BTTxNdXiN9A4QB-14" value="&lt;div class=&quot;lake-content&quot;&gt;&lt;div class=&quot;lake-content&quot;&gt;&lt;div class=&quot;lake-content&quot;&gt;如何优化光伏持仓？&lt;/div&gt;&lt;/div&gt;&lt;/div&gt;" style="rounded=1;whiteSpace=wrap;html=1;fillColor=#dae8fc;strokeColor=#6c8ebf;" vertex="1" parent="1">
          <mxGeometry x="130" y="1080" width="130" height="30" as="geometry" />
        </mxCell>
        <mxCell id="tnhg12BTTxNdXiN9A4QB-15" value="&lt;div class=&quot;lake-content&quot;&gt;&lt;div class=&quot;lake-content&quot;&gt;&lt;div class=&quot;lake-content&quot;&gt;&lt;div class=&quot;lake-content&quot;&gt;是否应加仓光伏股？&lt;/div&gt;&lt;/div&gt;&lt;/div&gt;&lt;/div&gt;" style="rounded=1;whiteSpace=wrap;html=1;fillColor=#dae8fc;strokeColor=#6c8ebf;" vertex="1" parent="1">
          <mxGeometry x="130" y="1120" width="130" height="30" as="geometry" />
        </mxCell>
        <mxCell id="tnhg12BTTxNdXiN9A4QB-16" value="&lt;div class=&quot;lake-content&quot;&gt;&lt;div class=&quot;lake-content&quot;&gt;&lt;div class=&quot;lake-content&quot;&gt;&lt;div class=&quot;lake-content&quot;&gt;行情解读&lt;/div&gt;&lt;/div&gt;&lt;/div&gt;&lt;/div&gt;" style="rounded=1;whiteSpace=wrap;html=1;fillColor=#dae8fc;strokeColor=#6c8ebf;" vertex="1" parent="1">
          <mxGeometry x="130" y="1160" width="130" height="30" as="geometry" />
        </mxCell>
        <mxCell id="tnhg12BTTxNdXiN9A4QB-17" value="&lt;div class=&quot;lake-content&quot;&gt;看来光伏行情的大涨引起了您的注意，这确实是个投资信号。&lt;/div&gt;" style="rounded=1;whiteSpace=wrap;html=1;fillColor=none;strokeColor=#FF3333;strokeWidth=2;" vertex="1" parent="1">
          <mxGeometry x="60" y="290" width="200" height="40" as="geometry" />
        </mxCell>
        <mxCell id="tnhg12BTTxNdXiN9A4QB-18" value="&lt;div class=&quot;lake-content&quot;&gt;&lt;div class=&quot;lake-content&quot;&gt;看来您对光伏行业的发展趋势很感兴趣，投资光伏需要注意市场的波动。&lt;/div&gt;&lt;/div&gt;" style="rounded=1;whiteSpace=wrap;html=1;fillColor=none;strokeColor=#FF3333;strokeWidth=2;" vertex="1" parent="1">
          <mxGeometry x="60" y="640" width="200" height="40" as="geometry" />
        </mxCell>
        <mxCell id="tnhg12BTTxNdXiN9A4QB-19" value="&lt;div class=&quot;lake-content&quot;&gt;&lt;div class=&quot;lake-content&quot;&gt;看来您对光伏行业的发展趋势很感兴趣，投资光伏需要注意市场的波动。&lt;/div&gt;&lt;/div&gt;" style="rounded=1;whiteSpace=wrap;html=1;fillColor=none;strokeColor=#FF3333;strokeWidth=2;" vertex="1" parent="1">
          <mxGeometry x="60" y="1030" width="200" height="40" as="geometry" />
        </mxCell>
        <mxCell id="tnhg12BTTxNdXiN9A4QB-43" value="" style="edgeStyle=orthogonalEdgeStyle;rounded=0;orthogonalLoop=1;jettySize=auto;html=1;" edge="1" parent="1" source="tnhg12BTTxNdXiN9A4QB-41" target="tnhg12BTTxNdXiN9A4QB-42">
          <mxGeometry relative="1" as="geometry" />
        </mxCell>
        <mxCell id="tnhg12BTTxNdXiN9A4QB-41" value="当前服务：热点事件解读" style="rounded=0;whiteSpace=wrap;html=1;" vertex="1" parent="1">
          <mxGeometry x="385" y="355" width="110" height="50" as="geometry" />
        </mxCell>
        <mxCell id="tnhg12BTTxNdXiN9A4QB-46" value="" style="edgeStyle=orthogonalEdgeStyle;rounded=0;orthogonalLoop=1;jettySize=auto;html=1;" edge="1" parent="1" source="tnhg12BTTxNdXiN9A4QB-42" target="tnhg12BTTxNdXiN9A4QB-45">
          <mxGeometry relative="1" as="geometry" />
        </mxCell>
        <mxCell id="tnhg12BTTxNdXiN9A4QB-42" value="目标服务：配置建议、行情分析" style="rounded=0;whiteSpace=wrap;html=1;" vertex="1" parent="1">
          <mxGeometry x="385" y="465" width="110" height="50" as="geometry" />
        </mxCell>
        <mxCell id="tnhg12BTTxNdXiN9A4QB-44" value="服务转移：由当前服务推理出至多3个目标服务" style="text;html=1;align=center;verticalAlign=middle;whiteSpace=wrap;rounded=0;" vertex="1" parent="1">
          <mxGeometry x="450" y="405" width="140" height="60" as="geometry" />
        </mxCell>
        <mxCell id="tnhg12BTTxNdXiN9A4QB-55" value="" style="edgeStyle=orthogonalEdgeStyle;rounded=0;orthogonalLoop=1;jettySize=auto;html=1;" edge="1" parent="1" source="tnhg12BTTxNdXiN9A4QB-45" target="tnhg12BTTxNdXiN9A4QB-51">
          <mxGeometry relative="1" as="geometry" />
        </mxCell>
        <mxCell id="tnhg12BTTxNdXiN9A4QB-45" value="服务转移策划案" style="rounded=0;whiteSpace=wrap;html=1;" vertex="1" parent="1">
          <mxGeometry x="380" y="555" width="120" height="40" as="geometry" />
        </mxCell>
        <mxCell id="tnhg12BTTxNdXiN9A4QB-48" value="" style="group" vertex="1" connectable="0" parent="1">
          <mxGeometry x="350" y="40" width="260" height="240" as="geometry" />
        </mxCell>
        <mxCell id="tnhg12BTTxNdXiN9A4QB-27" value="" style="rounded=0;whiteSpace=wrap;html=1;" vertex="1" parent="tnhg12BTTxNdXiN9A4QB-48">
          <mxGeometry width="260" height="240" as="geometry" />
        </mxCell>
        <mxCell id="tnhg12BTTxNdXiN9A4QB-28" value="&lt;font style=&quot;font-size: 14px;&quot;&gt;用户画像&lt;/font&gt;&lt;font style=&quot;&quot;&gt;：&lt;br&gt;年龄段：55至59岁&lt;br style=&quot;caret-color: rgb(0, 0, 0); text-size-adjust: auto;&quot;&gt;&lt;span style=&quot;font-size: 12px; caret-color: rgb(0, 0, 0); font-family: -webkit-standard; text-size-adjust: auto;&quot;&gt;城市等级：二线&lt;/span&gt;&lt;br style=&quot;caret-color: rgb(0, 0, 0); text-size-adjust: auto;&quot;&gt;&lt;span style=&quot;font-size: 12px; caret-color: rgb(0, 0, 0); font-family: -webkit-standard; text-size-adjust: auto;&quot;&gt;风险等级：较低&lt;/span&gt;&lt;br style=&quot;caret-color: rgb(0, 0, 0); text-size-adjust: auto;&quot;&gt;&lt;span style=&quot;font-size: 12px; caret-color: rgb(0, 0, 0); font-family: -webkit-standard; text-size-adjust: auto;&quot;&gt;财富平台用户画像：稳健保守型&lt;/span&gt;&lt;br style=&quot;caret-color: rgb(0, 0, 0); text-size-adjust: auto;&quot;&gt;&lt;span style=&quot;font-size: 12px; caret-color: rgb(0, 0, 0); font-family: -webkit-standard; text-size-adjust: auto;&quot;&gt;理财认知：中等水平&lt;/span&gt;&lt;br style=&quot;caret-color: rgb(0, 0, 0); text-size-adjust: auto;&quot;&gt;&lt;span style=&quot;font-size: 12px; caret-color: rgb(0, 0, 0); font-family: -webkit-standard; text-size-adjust: auto;&quot;&gt;理财意愿：高&lt;/span&gt;&lt;br style=&quot;caret-color: rgb(0, 0, 0); text-size-adjust: auto;&quot;&gt;&lt;span style=&quot;font-size: 12px; caret-color: rgb(0, 0, 0); font-family: -webkit-standard; text-size-adjust: auto;&quot;&gt;用户关键词：长期,债券,宏利,QDII&lt;/span&gt;&lt;br style=&quot;caret-color: rgb(0, 0, 0); text-size-adjust: auto;&quot;&gt;&lt;br style=&quot;caret-color: rgb(0, 0, 0); text-size-adjust: auto;&quot;&gt;&lt;span style=&quot;font-size: 12px; caret-color: rgb(0, 0, 0); font-family: -webkit-standard; text-size-adjust: auto;&quot;&gt;浏览基金：兴证全球恒悦180天持有期债券A&lt;/span&gt;&lt;br style=&quot;caret-color: rgb(0, 0, 0); text-size-adjust: auto;&quot;&gt;&lt;span style=&quot;font-size: 12px; caret-color: rgb(0, 0, 0); font-family: -webkit-standard; text-size-adjust: auto;&quot;&gt;自选基金：汇添富稳航180天持有期债券&lt;br&gt;&lt;/span&gt;&lt;br&gt;&lt;font style=&quot;font-size: 14px;&quot;&gt;历史对话：&lt;/font&gt;&lt;br&gt;钩子和解读&lt;br style=&quot;caret-color: rgb(0, 0, 0); text-size-adjust: auto;&quot;&gt;&lt;br&gt;&lt;/font&gt;" style="text;html=1;align=left;verticalAlign=middle;whiteSpace=wrap;rounded=0;" vertex="1" parent="tnhg12BTTxNdXiN9A4QB-48">
          <mxGeometry x="5" y="5" width="250" height="230" as="geometry" />
        </mxCell>
        <mxCell id="tnhg12BTTxNdXiN9A4QB-50" value="&lt;font style=&quot;font-size: 16px;&quot;&gt;LLM主动策划&lt;/font&gt;" style="text;html=1;align=center;verticalAlign=middle;whiteSpace=wrap;rounded=0;" vertex="1" parent="1">
          <mxGeometry x="430" y="310" width="100" height="30" as="geometry" />
        </mxCell>
        <mxCell id="tnhg12BTTxNdXiN9A4QB-51" value="LLM个性化生成和推荐：承接语+三个推荐问题" style="rounded=1;whiteSpace=wrap;html=1;fillColor=#d5e8d4;strokeColor=#82b366;" vertex="1" parent="1">
          <mxGeometry x="350" y="650" width="260" height="60" as="geometry" />
        </mxCell>
        <mxCell id="tnhg12BTTxNdXiN9A4QB-53" value="" style="edgeStyle=orthogonalEdgeStyle;rounded=0;orthogonalLoop=1;jettySize=auto;html=1;" edge="1" parent="1" source="tnhg12BTTxNdXiN9A4QB-28" target="tnhg12BTTxNdXiN9A4QB-50">
          <mxGeometry relative="1" as="geometry" />
        </mxCell>
        <mxCell id="tnhg12BTTxNdXiN9A4QB-54" style="edgeStyle=orthogonalEdgeStyle;rounded=0;orthogonalLoop=1;jettySize=auto;html=1;entryX=1;entryY=0.5;entryDx=0;entryDy=0;" edge="1" parent="1" source="tnhg12BTTxNdXiN9A4QB-28" target="tnhg12BTTxNdXiN9A4QB-51">
          <mxGeometry relative="1" as="geometry">
            <Array as="points">
              <mxPoint x="660" y="160" />
              <mxPoint x="660" y="680" />
            </Array>
          </mxGeometry>
        </mxCell>
      </root>
    </mxGraphModel>
  </diagram>
</mxfile>
